<svg width="507" height="571" viewBox="0 0 507 571" fill="none" xmlns="http://www.w3.org/2000/svg">
<path d="M248.523 185.989C255.369 185.509 260.713 185.78 266.828 189.355C285.907 200.508 304.768 212.048 323.756 223.359C332.342 228.474 340.849 233.353 343.645 243.625C344.378 246.33 344.82 249.106 344.963 251.906C345.144 254.997 345.091 258.407 345.016 261.528C344.457 284.794 345.638 308.188 344.584 331.416C344.07 337.946 339.521 346.697 333.921 350.198C311.186 364.412 288.155 378.376 264.933 391.783C263.071 392.858 260.213 393.526 258.112 393.993C251.132 394.906 245.023 393.937 238.975 390.348C225.375 382.279 211.901 374.097 198.347 365.921C189.436 360.546 179.529 354.925 171.115 348.959C168.158 346.862 163.522 339.979 162.836 336.306C160.19 322.156 162.126 304.628 161.624 289.844C161.184 276.901 161.536 262.999 161.742 250.085C161.798 246.556 163.679 240.661 165.485 237.703C167.24 234.867 169.493 232.371 172.136 230.336C176.156 227.259 182.018 224.035 186.492 221.367C204.99 210.336 223.218 198.731 242.007 188.214C243.79 187.216 246.529 186.493 248.523 185.989Z" fill="#DE7356"/>
<path d="M246.995 0.557319C268.771 -2.81768 286.061 9.80632 303.585 20.3673L340.539 42.7903C352.18 49.8843 364.595 57.2043 375.916 64.7943C378.952 66.8733 380.993 69.8543 382.767 72.9343C389.974 85.4463 384.994 102.791 371.185 108.943C365.662 111.381 359.476 111.879 353.635 110.354C347.148 108.592 337.361 102.107 331.235 98.3893L284.498 70.1313C278.246 66.3593 266.141 58.2743 259.782 56.1923C255.512 55.1803 251.643 54.9843 247.409 56.2453C239.667 58.5503 232.585 63.8253 225.726 67.9843C212.956 75.7273 161.855 108.464 151.336 110.688C144.546 112.125 137.023 110.943 131.322 106.875C125.542 102.749 121.69 95.9263 120.57 88.9633C119.467 82.1073 121.837 75.0003 126.048 69.5653C128.167 66.8303 130.829 64.5193 133.664 62.5513C148.06 52.5573 164.106 44.0743 179.096 34.9243C193.837 25.9273 211.783 13.5553 227.022 6.32432C233.468 3.26632 239.951 1.54432 246.995 0.557319Z" fill="#DE7356"/>
<path d="M145.502 460.402C157.469 460.74 166.698 468.082 176.646 474.064L219.273 499.684C255.112 521.425 250.415 522.215 286.098 500.628L330.188 473.958C336.349 470.238 346.331 463.712 352.771 461.693C357.075 460.298 361.671 460.07 366.092 461.032C369.308 461.698 372.356 463.007 375.053 464.88C377.75 466.753 380.041 469.152 381.788 471.932C383.694 474.89 384.969 478.209 385.532 481.682C386.095 485.155 385.934 488.707 385.06 492.115C381.844 504.882 372.671 508.896 362.352 514.876C349.506 523.437 331.828 533.146 318.364 541.473C308.619 547.499 289.725 559.486 280.272 564.177C275.142 566.751 269.686 568.616 264.054 569.719C238.85 574.605 221.256 561.764 200.947 549.314C178.271 535.65 155.634 522.145 133.106 508.215C118.739 499.331 116.258 480.166 127.908 467.935C132.636 462.971 138.881 461.162 145.502 460.402Z" fill="#DE7356"/>
<path d="M458.77 120.534C480.434 119.462 499.016 144.776 503.999 163.854C505.177 168.426 505.919 173.1 506.214 177.813C507.191 193 505.842 212.189 506.289 227.859C505.936 241.204 507.066 254.904 506.165 268.208C505.261 281.562 496.327 288.332 484.551 291.206C478.542 291.404 473.727 291.023 468.414 287.755C454.628 279.279 456.137 265.047 456.181 251.283L456.329 210.684C456.361 202.05 456.912 191.596 455.403 183.182C452.896 169.199 438.479 165.367 435.694 151.647C434.337 144.959 435.739 137.201 439.697 131.66C444.748 124.59 450.635 121.907 458.77 120.534Z" fill="#DE7356"/>
<path d="M43.7059 120.535C48.7364 120.222 53.7514 121.354 58.1599 123.797C68.7359 129.695 74.1129 142.429 70.0539 153.924C66.1399 165.006 55.6729 169.418 51.9039 180.476C49.4069 187.803 50.0749 196.332 50.0829 204.065L50.1539 246.457C50.1919 266.593 53.3079 285.537 28.3249 291.165C21.6179 291.454 16.2579 290.592 10.5559 286.794C-1.02811 279.078 -0.0871423 265.576 0.0948577 253.422C0.191858 246.919 0.202874 240.377 0.204874 233.894L0.105875 198.498C0.0758746 188.708 -0.340139 178.791 1.49186 169.166C3.3275 159.374 7.24262 150.09 12.9729 141.939C20.3979 131.431 30.7499 122.728 43.7059 120.535Z" fill="#DE7356"/>
<path d="M476.986 337.859C491.005 336.903 501.394 341.748 505.375 356.429C507.097 362.781 506.29 370.546 506.404 376.989C506.726 395.311 506.945 413.489 496.741 429.576C489.373 441.951 473.914 455.468 459.887 458.934C445.691 461.171 434.169 454.052 430.255 440.202C423.339 415.726 451.15 412.809 455.181 393.697C459.781 371.883 446.903 345.805 476.986 337.859Z" fill="#DE7356"/>
<path d="M20.8586 337.821C26.1106 337.425 31.6506 337.529 36.4646 340.06C59.8126 352.332 43.9306 380.963 53.5746 399.901C58.9736 410.821 73.1246 414.064 76.2026 426.773C79.9726 442.334 71.7696 454.399 57.1126 458.754C33.5756 462.997 7.33761 433.778 2.54461 412.494C-0.534391 398.823 0.234613 389.61 0.105613 375.968C-0.0673865 357.655 -0.353395 343.102 20.8586 337.821Z" fill="#DE7356"/>
</svg>
